<svg xmlns="http://www.w3.org/2000/svg" width="1440" height="800" viewBox="0 0 1440 800">
  <!-- Background pattern for hero section -->
  <defs>
    <!-- Gradient for background -->
    <linearGradient id="grad1" x1="0%" y1="0%" x2="100%" y2="100%">
      <stop offset="0%" style="stop-color:#1a237e;stop-opacity:1" />
      <stop offset="100%" style="stop-color:#534bae;stop-opacity:1" />
    </linearGradient>
    
    <!-- Pattern for cells -->
    <pattern id="cellPattern" x="0" y="0" width="100" height="100" patternUnits="userSpaceOnUse">
      <circle cx="50" cy="50" r="40" fill="none" stroke="white" stroke-width="1" opacity="0.2" />
      <circle cx="50" cy="50" r="20" fill="none" stroke="white" stroke-width="1" opacity="0.3" />
    </pattern>
    
    <!-- Light beam effect -->
    <radialGradient id="lightBeam" cx="50%" cy="0%" r="100%" fx="50%" fy="0%">
      <stop offset="0%" style="stop-color:white;stop-opacity:0.2" />
      <stop offset="100%" style="stop-color:white;stop-opacity:0" />
    </radialGradient>
  </defs>
  
  <!-- Main background -->
  <rect width="100%" height="100%" fill="url(#grad1)" />
  
  <!-- Cell pattern overlay -->
  <rect width="100%" height="100%" fill="url(#cellPattern)" />
  
  <!-- Abstract DNA/molecular structure -->
  <g opacity="0.15">
    <!-- Horizontal lines representing DNA strands -->
    <path d="M0,200 C200,180 400,220 600,200 S800,180 1000,200 S1200,220 1440,200" stroke="white" fill="none" stroke-width="2" />
    <path d="M0,300 C200,320 400,280 600,300 S800,320 1000,300 S1200,280 1440,300" stroke="white" fill="none" stroke-width="2" />
    <path d="M0,400 C200,380 400,420 600,400 S800,380 1000,400 S1200,420 1440,400" stroke="white" fill="none" stroke-width="2" />
    <path d="M0,500 C200,520 400,480 600,500 S800,520 1000,500 S1200,480 1440,500" stroke="white" fill="none" stroke-width="2" />
    
    <!-- Connecting vertical lines -->
    <line x1="200" y1="200" x2="200" y2="300" stroke="white" stroke-width="2" />
    <line x1="400" y1="300" x2="400" y2="400" stroke="white" stroke-width="2" />
    <line x1="600" y1="400" x2="600" y2="500" stroke="white" stroke-width="2" />
    <line x1="800" y1="200" x2="800" y2="300" stroke="white" stroke-width="2" />
    <line x1="1000" y1="300" x2="1000" y2="400" stroke="white" stroke-width="2" />
    <line x1="1200" y1="400" x2="1200" y2="500" stroke="white" stroke-width="2" />
  </g>
  
  <!-- Light beam effect -->
  <ellipse cx="720" cy="0" rx="600" ry="800" fill="url(#lightBeam)" />
  
  <!-- Scattered dots representing molecules or cells -->
  <g opacity="0.2">
    <circle cx="100" cy="150" r="5" fill="white" />
    <circle cx="300" cy="250" r="3" fill="white" />
    <circle cx="500" cy="350" r="4" fill="white" />
    <circle cx="700" cy="150" r="3" fill="white" />
    <circle cx="900" cy="250" r="5" fill="white" />
    <circle cx="1100" cy="350" r="4" fill="white" />
    <circle cx="1300" cy="450" r="3" fill="white" />
    <circle cx="200" cy="450" r="4" fill="white" />
    <circle cx="400" cy="550" r="3" fill="white" />
    <circle cx="600" cy="650" r="5" fill="white" />
    <circle cx="800" cy="550" r="4" fill="white" />
    <circle cx="1000" cy="650" r="3" fill="white" />
    <circle cx="1200" cy="750" r="5" fill="white" />
  </g>
</svg>